<svg width="22" height="22" viewBox="0 0 22 22" fill="none" xmlns="http://www.w3.org/2000/svg">
<path d="M4.67189 4.30789H18.8947C19.0621 4.30798 19.2261 4.35461 19.3686 4.44258C19.511 4.53055 19.6261 4.6564 19.7012 4.80605C19.7762 4.9557 19.8081 5.12326 19.7933 5.29002C19.7797 5.44451 19.7265 5.59267 19.6391 5.72032L19.6168 5.75L16.4589 9.96052L16.4585 9.96119C16.3749 10.0738 16.2662 10.1653 16.1409 10.2283C16.0156 10.2912 15.8773 10.3239 15.7371 10.3237H15.7368H7.2256L4.67189 4.30789ZM19.0447 14.6842V14.5342H18.8947H7.31579C7.0764 14.5342 6.84681 14.4391 6.67753 14.2698C6.51208 14.1044 6.41749 13.8813 6.4133 13.6478L6.5108 13.2188L7.26819 11.6763H15.7368C15.7368 11.6763 15.7368 11.6763 15.7368 11.6763C16.0997 11.6765 16.4572 11.589 16.779 11.4213C17.1 11.2541 17.376 11.0119 17.5836 10.7154L20.6478 6.6291C20.9152 6.29862 21.0837 5.89929 21.134 5.47713C21.1844 5.05401 21.1138 4.62528 20.9306 4.2406C20.7473 3.85591 20.4588 3.53102 20.0985 3.30354C19.7382 3.07606 19.3209 2.9553 18.8948 2.95526H4.09823L3.24334 0.941387L3.20454 0.85H3.10526H1H0.85V1V2.05263V2.20263H1H2.30914L6.06677 11.0546L5.34059 12.5412C5.1514 12.8838 5.05459 13.2697 5.0597 13.661C5.06482 14.0537 5.17237 14.4382 5.37172 14.7765C5.57106 15.1148 5.85529 15.3952 6.19627 15.5899C6.53724 15.7847 6.92314 15.887 7.31579 15.8868C7.31581 15.8868 7.31584 15.8868 7.31586 15.8868H18.8947H19.0447V15.7368V14.6842ZM18.3842 17.3C17.9612 16.8771 17.3876 16.6395 16.7895 16.6395C16.1913 16.6395 15.6177 16.8771 15.1948 17.3C14.7718 17.723 14.5342 18.2966 14.5342 18.8947C14.5342 19.4929 14.7718 20.0665 15.1948 20.4894C15.6177 20.9124 16.1913 21.15 16.7895 21.15C17.3876 21.15 17.9612 20.9124 18.3842 20.4894C18.8071 20.0665 19.0447 19.4929 19.0447 18.8947C19.0447 18.2966 18.8071 17.723 18.3842 17.3ZM16.1512 18.2565C16.3205 18.0872 16.5501 17.9921 16.7895 17.9921C17.0289 17.9921 17.2585 18.0872 17.4277 18.2565C17.597 18.4258 17.6921 18.6553 17.6921 18.8947C17.6921 19.1341 17.597 19.3637 17.4277 19.533C17.2585 19.7023 17.0289 19.7974 16.7895 19.7974C16.5501 19.7974 16.3205 19.7023 16.1512 19.533C15.9819 19.3637 15.8868 19.1341 15.8868 18.8947C15.8868 18.6553 15.9819 18.4258 16.1512 18.2565ZM8.9105 17.3C8.48756 16.8771 7.91392 16.6395 7.31579 16.6395C6.71766 16.6395 6.14402 16.8771 5.72108 17.3C5.29813 17.723 5.06053 18.2966 5.06053 18.8947C5.06053 19.4929 5.29813 20.0665 5.72108 20.4894C6.14402 20.9124 6.71766 21.15 7.31579 21.15C7.91392 21.15 8.48756 20.9124 8.9105 20.4894C9.33344 20.0665 9.57105 19.4929 9.57105 18.8947C9.57105 18.2966 9.33344 17.723 8.9105 17.3ZM6.67753 18.2565C6.84681 18.0872 7.0764 17.9921 7.31579 17.9921C7.55518 17.9921 7.78477 18.0872 7.95405 18.2565C8.12332 18.4258 8.21842 18.6553 8.21842 18.8947C8.21842 19.1341 8.12332 19.3637 7.95405 19.533C7.78477 19.7023 7.55518 19.7974 7.31579 19.7974C7.0764 19.7974 6.84681 19.7023 6.67753 19.533C6.50826 19.3637 6.41316 19.1341 6.41316 18.8947C6.41316 18.6553 6.50826 18.4258 6.67753 18.2565Z" fill="#B07D31" stroke="#B07D31" stroke-width="0.3"/>
</svg>
