<svg width="19" height="19" viewBox="0 0 19 19" fill="none" xmlns="http://www.w3.org/2000/svg">
<path d="M15 15C15.5304 15 16.0391 15.2107 16.4142 15.5858C16.7893 15.9609 17 16.4696 17 17C17 17.5304 16.7893 18.0391 16.4142 18.4142C16.0391 18.7893 15.5304 19 15 19C14.4696 19 13.9609 18.7893 13.5858 18.4142C13.2107 18.0391 13 17.5304 13 17C13 16.4696 13.2107 15.9609 13.5858 15.5858C13.9609 15.2107 14.4696 15 15 15ZM15 16C14.7348 16 14.4804 16.1054 14.2929 16.2929C14.1054 16.4804 14 16.7348 14 17C14 17.2652 14.1054 17.5196 14.2929 17.7071C14.4804 17.8946 14.7348 18 15 18C15.2652 18 15.5196 17.8946 15.7071 17.7071C15.8946 17.5196 16 17.2652 16 17C16 16.7348 15.8946 16.4804 15.7071 16.2929C15.5196 16.1054 15.2652 16 15 16ZM6 15C6.53043 15 7.03914 15.2107 7.41421 15.5858C7.78929 15.9609 8 16.4696 8 17C8 17.5304 7.78929 18.0391 7.41421 18.4142C7.03914 18.7893 6.53043 19 6 19C5.46957 19 4.96086 18.7893 4.58579 18.4142C4.21071 18.0391 4 17.5304 4 17C4 16.4696 4.21071 15.9609 4.58579 15.5858C4.96086 15.2107 5.46957 15 6 15ZM6 16C5.73478 16 5.48043 16.1054 5.29289 16.2929C5.10536 16.4804 5 16.7348 5 17C5 17.2652 5.10536 17.5196 5.29289 17.7071C5.48043 17.8946 5.73478 18 6 18C6.26522 18 6.51957 17.8946 6.70711 17.7071C6.89464 17.5196 7 17.2652 7 17C7 16.7348 6.89464 16.4804 6.70711 16.2929C6.51957 16.1054 6.26522 16 6 16ZM17 3H3.273L5.82 9H14C14.1555 9.00024 14.3089 8.96399 14.4478 8.89417C14.5868 8.82435 14.7074 8.72291 14.8 8.598L17.8 4.598H17.801C17.9119 4.44936 17.9793 4.2728 17.9956 4.08806C18.012 3.90333 17.9766 3.71769 17.8935 3.55189C17.8104 3.3861 17.6828 3.24668 17.525 3.14922C17.3672 3.05176 17.1855 3.00009 17 3ZM14 10H5.866L5.1 11.56L5 12C5 12.2652 5.10536 12.5196 5.29289 12.7071C5.48043 12.8946 5.73478 13 6 13H17V14H6C5.65177 14.0002 5.30952 13.9094 5.00713 13.7367C4.70474 13.564 4.45269 13.3153 4.27591 13.0153C4.09912 12.7153 4.00374 12.3743 3.9992 12.0261C3.99465 11.6779 4.08111 11.3345 4.25 11.03L4.97 9.556L1.338 1H0V0H2L2.849 2H17C17.3779 2.00004 17.748 2.10712 18.0675 2.30885C18.3871 2.51059 18.6429 2.79871 18.8054 3.13985C18.9679 3.481 19.0305 3.8612 18.9858 4.23642C18.9411 4.61165 18.7911 4.96654 18.553 5.26L15.639 9.146C15.4548 9.40981 15.2095 9.62521 14.9242 9.7739C14.6388 9.92258 14.3218 10.0001 14 10Z" fill="#503310"/>
</svg>
