<svg width="24" height="24" viewBox="0 0 24 24" fill="none" xmlns="http://www.w3.org/2000/svg">
<path d="M22.991 3.95C22.991 3.7735 22.9442 3.60015 22.8555 3.44756C22.7668 3.29497 22.6393 3.16858 22.4859 3.08123C22.3325 2.99388 22.1588 2.94867 21.9823 2.95022C21.8058 2.95176 21.6328 2.99999 21.481 3.09C20.8954 3.43881 20.2649 3.70595 19.607 3.884C18.668 3.07828 17.4703 2.63741 16.233 2.642C14.8757 2.64363 13.5722 3.17264 12.5977 4.11732C11.6231 5.06201 11.0538 6.34845 11.01 7.705C8.33379 7.27833 5.90826 5.88153 4.19599 3.781C4.09282 3.65597 3.96112 3.55756 3.81198 3.49404C3.66284 3.43052 3.50063 3.40376 3.33899 3.416C3.17739 3.42938 3.02147 3.48189 2.88471 3.569C2.74794 3.65611 2.63443 3.77521 2.55399 3.916C2.14151 4.6359 1.90463 5.44293 1.86258 6.27156C1.82053 7.10019 1.9745 7.92705 2.31199 8.685L2.30999 8.686C2.15797 8.77941 2.03252 8.91032 1.94566 9.06617C1.85881 9.22202 1.81347 9.39758 1.81399 9.576C1.81239 9.7228 1.82141 9.86951 1.84099 10.015C1.94311 11.2731 2.50062 12.4507 3.40899 13.327C3.34735 13.4445 3.30976 13.5731 3.29843 13.7054C3.2871 13.8376 3.30225 13.9707 3.34299 14.097C3.73897 15.3312 4.58125 16.3731 5.70499 17.019C4.56316 17.4604 3.33029 17.6143 2.11499 17.467C1.89016 17.439 1.6625 17.4883 1.4693 17.6066C1.27609 17.7249 1.1288 17.9053 1.05153 18.1183C0.974263 18.3313 0.971607 18.5642 1.044 18.7789C1.11639 18.9936 1.25953 19.1773 1.44999 19.3C3.5402 20.646 5.97387 21.3616 8.45999 21.361C11.2792 21.3927 14.0299 20.4919 16.2842 18.7986C18.5385 17.1053 20.17 14.7145 20.925 11.998C21.2779 10.8148 21.4581 9.58676 21.46 8.352L21.459 8.152C21.9811 7.58881 22.3856 6.92703 22.6487 6.20548C22.9118 5.48393 23.0281 4.71712 22.991 3.95ZM19.685 7.162C19.5196 7.35722 19.4358 7.60862 19.451 7.864C19.461 8.029 19.46 8.195 19.46 8.352C19.4579 9.39518 19.305 10.4326 19.006 11.432C18.3897 13.7436 17.0154 15.7815 15.1033 17.2193C13.1912 18.6571 10.8518 19.4116 8.45999 19.362C7.60112 19.3621 6.74522 19.2611 5.90999 19.061C6.9753 18.7174 7.97135 18.1879 8.85199 17.497C9.01438 17.3693 9.13324 17.1945 9.19226 16.9965C9.25127 16.7986 9.24752 16.5872 9.18154 16.3915C9.11556 16.1957 8.99059 16.0252 8.82378 15.9034C8.65698 15.7815 8.45653 15.7143 8.24999 15.711C7.41871 15.698 6.62495 15.3628 6.03599 14.776C6.18532 14.748 6.33366 14.713 6.48099 14.671C6.69702 14.6096 6.88608 14.4773 7.01773 14.2953C7.14937 14.1133 7.21594 13.8924 7.2067 13.668C7.19746 13.4436 7.11296 13.2288 6.9668 13.0583C6.82064 12.8878 6.62133 12.7714 6.40099 12.728C5.91848 12.6327 5.46446 12.4274 5.07422 12.128C4.68398 11.8287 4.36805 11.4433 4.15099 11.002C4.33174 11.0267 4.51365 11.0421 4.69599 11.048C4.91267 11.0516 5.12486 10.986 5.30178 10.8609C5.47871 10.7357 5.61118 10.5575 5.67999 10.352C5.74604 10.1448 5.74272 9.92165 5.67054 9.71647C5.59836 9.51129 5.46125 9.33524 5.27999 9.215C4.83993 8.92207 4.4794 8.52455 4.2307 8.05805C3.98201 7.59155 3.85292 7.07065 3.85499 6.542C3.85499 6.476 3.85699 6.409 3.86099 6.344C6.10245 8.43463 9.0099 9.66703 12.071 9.824C12.2256 9.82987 12.3794 9.80051 12.521 9.73814C12.6625 9.67577 12.788 9.58203 12.888 9.464C12.987 9.34525 13.0572 9.20515 13.0929 9.05472C13.1286 8.90428 13.129 8.74761 13.094 8.597C13.0367 8.35821 13.0075 8.11356 13.007 7.868C13.008 7.01274 13.3483 6.19281 13.953 5.58805C14.5578 4.98328 15.3777 4.64306 16.233 4.642C16.6731 4.6407 17.1088 4.73067 17.5124 4.90624C17.916 5.0818 18.2788 5.33914 18.578 5.662C18.6933 5.78613 18.8385 5.87867 18.9997 5.93083C19.1609 5.98299 19.3328 5.99303 19.499 5.96C19.9098 5.88015 20.3147 5.77257 20.711 5.638C20.4408 6.19083 20.0955 6.70367 19.685 7.162Z" fill="#F4ECEC"/>
</svg>
