<svg width="18" height="18" viewBox="0 0 18 18" fill="none" xmlns="http://www.w3.org/2000/svg">
<path d="M16 4.28571H14C14 1.92 11.76 0 9 0C6.24 0 4 1.92 4 4.28571H2C0.9 4.28571 0.00999999 5.05714 0.00999999 6L0 16.2857C0 17.2286 0.9 18 2 18H16C17.1 18 18 17.2286 18 16.2857V6C18 5.05714 17.1 4.28571 16 4.28571ZM9 1.71429C10.66 1.71429 12 2.86286 12 4.28571H6C6 2.86286 7.34 1.71429 9 1.71429ZM9 10.2857C6.24 10.2857 4 8.36571 4 6H6C6 7.42286 7.34 8.57143 9 8.57143C10.66 8.57143 12 7.42286 12 6H14C14 8.36571 11.76 10.2857 9 10.2857Z" fill="#B07D31"/>
</svg>
