<svg width="20" height="20" viewBox="0 0 20 20" fill="none" xmlns="http://www.w3.org/2000/svg">
<mask id="mask0_308_10" style="mask-type:alpha" maskUnits="userSpaceOnUse" x="1" y="1" width="18" height="18">
<rect x="1" y="1" width="18" height="18" fill="#E3E3E3"/>
</mask>
<g mask="url(#mask0_308_10)">
<path d="M13.4834 8.79342H13.4831H6.32157L4.22101 3.86447L16.1579 3.86447C16.158 3.86447 16.158 3.86447 16.158 3.86447C16.2864 3.86456 16.4122 3.9002 16.5214 3.96734C16.6305 4.0345 16.7187 4.13051 16.7761 4.24454C16.8334 4.35857 16.8578 4.48619 16.8466 4.61316C16.8362 4.73029 16.7958 4.84269 16.7295 4.93971L16.7116 4.96345L14.0366 8.51608L14.036 8.51697C13.9721 8.60278 13.8889 8.67254 13.7929 8.72058C13.6969 8.76862 13.5909 8.79358 13.4834 8.79342ZM16.358 12.5461V12.3461H16.158H6.3499C6.16621 12.3461 5.9902 12.2734 5.86055 12.1442C5.73594 12.0201 5.66395 11.8536 5.65857 11.679L5.73718 11.3345L6.35481 10.0816H13.483C13.483 10.0816 13.4831 10.0816 13.4831 10.0816C13.802 10.0817 14.1163 10.0051 14.3993 9.85828C14.6812 9.71196 14.9237 9.50017 15.1063 9.24076L17.7003 5.79496C17.9351 5.50559 18.0831 5.15599 18.1273 4.78635C18.1716 4.41541 18.1095 4.03957 17.9483 3.7024C17.787 3.36523 17.5332 3.08057 17.2164 2.88132C16.8996 2.68208 16.5326 2.57635 16.1581 2.57632H16.158H3.67248L2.96729 0.92159L2.91547 0.8H2.7833H1H0.8V1V1.88816V2.08816H1H2.06086L5.21161 9.4814L4.61218 10.7038C4.44631 11.0036 4.36142 11.3412 4.3659 11.6837C4.37041 12.0279 4.46508 12.365 4.64047 12.6615C4.81587 12.958 5.06588 13.2036 5.36571 13.3742C5.66551 13.5448 6.00476 13.6344 6.3499 13.6342C6.34993 13.6342 6.34996 13.6342 6.35 13.6342H16.158H16.358V13.4342V12.5461ZM15.7769 14.7009C15.4049 14.3304 14.9005 14.1224 14.3747 14.1224C13.849 14.1224 13.3446 14.3304 12.9726 14.7009C12.6006 15.0715 12.3914 15.5743 12.3914 16.0987C12.3914 16.6231 12.6006 17.1259 12.9726 17.4964C13.3446 17.867 13.849 18.075 14.3747 18.075C14.9005 18.075 15.4049 17.867 15.7769 17.4964C16.1489 17.1259 16.358 16.6231 16.358 16.0987C16.358 15.5743 16.1489 15.0715 15.7769 14.7009ZM13.8854 15.6124C14.015 15.4832 14.1911 15.4105 14.3747 15.4105C14.5584 15.4105 14.7344 15.4832 14.8641 15.6124C14.9937 15.7415 15.0664 15.9164 15.0664 16.0987C15.0664 16.2809 14.9937 16.4559 14.8641 16.585C14.7344 16.7142 14.5584 16.7868 14.3747 16.7868C14.1911 16.7868 14.015 16.7142 13.8854 16.585C13.7558 16.4559 13.6831 16.2809 13.6831 16.0987C13.6831 15.9164 13.7558 15.7415 13.8854 15.6124ZM7.75203 14.7009C7.38002 14.3304 6.87565 14.1224 6.3499 14.1224C5.82415 14.1224 5.31977 14.3304 4.94777 14.7009C4.57574 15.0715 4.3666 15.5743 4.3666 16.0987C4.3666 16.6231 4.57574 17.1259 4.94777 17.4964C5.31977 17.867 5.82415 18.075 6.3499 18.075C6.87565 18.075 7.38002 17.867 7.75203 17.4964C8.12405 17.1259 8.3332 16.6231 8.3332 16.0987C8.3332 15.5743 8.12405 15.0715 7.75203 14.7009ZM5.86055 15.6124C5.9902 15.4832 6.16621 15.4105 6.3499 15.4105C6.53359 15.4105 6.7096 15.4832 6.83925 15.6124C6.96887 15.7415 7.04155 15.9164 7.04155 16.0987C7.04155 16.2809 6.96887 16.4559 6.83925 16.585C6.7096 16.7142 6.53359 16.7868 6.3499 16.7868C6.16621 16.7868 5.9902 16.7142 5.86055 16.585C5.73093 16.4559 5.65825 16.2809 5.65825 16.0987C5.65825 15.9164 5.73093 15.7415 5.86055 15.6124Z" fill="#B07D31" stroke="#B07D31" stroke-width="0.4"/>
</g>
</svg>
