<svg width="24" height="24" viewBox="0 0 24 24" fill="none" xmlns="http://www.w3.org/2000/svg">
<path d="M15.276 8.0303C15.5093 7.81601 15.8219 7.68921 16.15 7.68921H18.1394H18.1577L18.176 7.6901C18.4907 7.70547 18.7954 7.83475 19.0241 8.06305C19.2542 8.29262 19.3895 8.60578 19.3885 8.93966C19.3874 9.2735 19.2501 9.58574 19.0188 9.81386C19.0036 9.82888 18.988 9.84345 18.9722 9.85759C18.9902 9.8723 19.0078 9.88753 19.0251 9.90328C19.1499 10.0173 19.2519 10.1563 19.3224 10.3133C19.3929 10.4705 19.43 10.6412 19.43 10.8148C19.43 10.9885 19.3929 11.1591 19.3224 11.3163C19.2519 11.4733 19.1499 11.6123 19.0251 11.7263C19.0157 11.7349 19.0062 11.7433 18.9966 11.7516C19.0061 11.7597 19.0156 11.768 19.025 11.7764C19.1517 11.8904 19.2552 12.0299 19.3268 12.1879C19.3985 12.3461 19.4362 12.5181 19.4362 12.6931C19.4362 12.8682 19.3985 13.0402 19.3268 13.1983C19.2552 13.3564 19.1517 13.4959 19.025 13.6099C18.8984 13.7238 18.7511 13.8101 18.593 13.8657C18.4414 13.9189 18.2816 13.9434 18.122 13.9386H16.15H16.1475C15.8284 13.9376 15.5149 13.8193 15.2753 13.5976C15.0354 13.8185 14.722 13.9364 14.4032 13.9374M15.276 8.0303L11.41 8.44039M15.276 8.0303C15.0405 7.81464 14.7252 7.68803 14.3981 7.68803C13.7292 7.68803 13.1237 8.21385 13.1237 8.93589V9.08564M15.276 8.0303L13.8737 10.044L13.1237 9.08564M14.4032 13.9374C14.2124 13.9388 14.0223 13.8984 13.8476 13.8179C13.6718 13.7369 13.5143 13.6165 13.3899 13.4631L13.3852 13.4573L13.3806 13.4514L12.6881 12.5615M14.4032 13.9374C14.4042 13.9374 14.4053 13.9374 14.4063 13.9374L14.3994 13.1875L14.4002 13.9375C14.4012 13.9375 14.4022 13.9374 14.4032 13.9374ZM12.6881 12.5615V12.692C12.6881 13.0364 12.5429 13.3576 12.2996 13.5875C12.0578 13.816 11.7385 13.9375 11.4137 13.9375C11.089 13.9375 10.7697 13.816 10.5279 13.5875C10.5236 13.5834 10.5194 13.5794 10.5152 13.5753C10.5102 13.5802 10.5051 13.5851 10.4999 13.5899C10.2576 13.8176 9.93815 13.9384 9.61353 13.938L9.60847 13.938L9.60847 13.938C9.33855 13.9359 9.07291 13.8499 8.853 13.6885C8.63032 13.852 8.36081 13.938 8.0875 13.938H6.09812H6.09648C5.77283 13.9373 5.45472 13.8164 5.2131 13.5894C4.97008 13.3611 4.82366 13.0422 4.82065 12.6991L4.8206 12.6925H4.82062V8.93648C4.82062 8.2088 5.4351 7.68862 6.09812 7.68862C6.76709 7.68862 7.3725 8.21444 7.3725 8.93648V11.4471H8.0875C8.17374 11.4471 8.25961 11.4556 8.34375 11.4725V8.93648C8.34375 8.21444 8.94916 7.68862 9.61812 7.68862C9.95747 7.68862 10.281 7.82427 10.5172 8.05254C10.6573 7.91691 10.8278 7.8136 11.014 7.75307C11.1433 7.71037 11.2786 7.68935 11.4142 7.6904M12.6881 12.5615V11.3402L11.9381 10.3763M12.6881 12.5615L11.9381 10.3763M11.4142 7.6904C11.4156 7.69041 11.4169 7.69042 11.4183 7.69044L11.41 8.44039M11.4142 7.6904C11.4128 7.6904 11.4114 7.69039 11.41 7.69039V8.44039M11.4142 7.6904C11.8315 7.69178 12.1763 7.90115 12.3916 8.1514L12.403 8.16463L12.4138 8.17838L13.1237 9.08564M11.41 8.44039C11.5725 8.44039 11.7225 8.52366 11.8231 8.6406L13.1237 10.3026V9.08564M11.9381 10.3763V11.5976V10.3763ZM11.3824 8.44085L11.1881 8.19116V8.28111L11.3824 8.44085ZM14.6237 13.1399C14.5628 13.167 14.4965 13.1831 14.4284 13.1867L14.6237 13.4363V13.1399ZM10.508 17.5023L10.4821 17.4972L10.4559 17.4939C5.86581 16.9178 2.75 13.9403 2.75 10.671C2.75 8.83916 3.72068 7.12498 5.38995 5.8447C7.05963 4.56411 9.39594 3.75 12 3.75C14.6041 3.75 16.9404 4.56411 18.61 5.8447C20.2793 7.12498 21.25 8.83916 21.25 10.671C21.25 12.1249 20.6699 13.4725 19.3382 14.8502L19.3317 14.8569L19.3254 14.8638C18.3402 15.9353 16.7068 17.1618 15.1491 18.1894C13.777 19.0946 12.5435 19.7934 11.9498 20.0744L12.0168 19.6811L12.0193 19.6665L12.0212 19.6518C12.0385 19.5191 12.0607 19.327 12.0612 19.1258C12.0617 18.9379 12.0447 18.6666 11.935 18.4089L11.935 18.4089L11.9322 18.4024C11.7601 18.0088 11.4033 17.8093 11.1939 17.714C10.9544 17.6049 10.6996 17.5402 10.508 17.5023Z" stroke="#DFDFDF" stroke-width="1.5"/>
</svg>
